<svg width="20" height="20" viewBox="0 0 20 20" fill="none" xmlns="http://www.w3.org/2000/svg">
<path d="M10.3435 3.211C10.9201 2.53426 11.8952 2.03252 12.6994 2C12.8021 2.93741 12.4243 3.8774 11.8668 4.55362C11.3072 5.22932 10.392 5.75532 9.49333 5.68564C9.37254 4.76784 9.82525 3.80978 10.3435 3.211ZM14.9206 16.0121C14.2532 16.9872 13.5615 17.9587 12.4718 17.9783C11.4002 17.9985 11.0553 17.3434 9.83144 17.3434C8.60651 17.3434 8.22349 17.9592 7.20916 17.999C6.15767 18.0382 5.35654 16.9475 4.68393 15.9755C3.30827 13.9892 2.25885 10.3619 3.67013 7.91302C4.36905 6.69583 5.62135 5.92773 6.97946 5.90657C8.01391 5.88747 8.98901 6.60343 9.6198 6.60343C10.2521 6.60343 11.4373 5.74345 12.6839 5.87044C13.2053 5.8916 14.6692 6.08001 15.6097 7.45567C15.5344 7.50316 13.8614 8.47619 13.8815 10.5023C13.9037 12.9227 16.0046 13.7264 16.0289 13.7388C16.0093 13.7935 15.6918 14.8853 14.9206 16.0121Z" fill="#6F7893"/>
</svg>
