<svg width="20" height="20" viewBox="0 0 20 20" fill="none" xmlns="http://www.w3.org/2000/svg">
<path d="M4.45383 2.1996L13.0669 6.81082L10.4388 9.43886L3.10087 2.1009C3.52084 1.94773 4.00621 1.96 4.45383 2.1996ZM2 16.3308V3.66921C2 3.22681 2.16588 2.84064 2.42902 2.55141L9.87763 9.99996L2.42902 17.4486C2.16588 17.1593 2 16.7732 2 16.3308ZM4.45383 17.8004C4.00621 18.04 3.5209 18.0522 3.10087 17.8991L10.4388 10.5612L13.0668 13.1892L4.45383 17.8004ZM16.2788 11.4696L13.7978 12.7979L10.9999 9.99996L13.7978 7.20209L16.2788 8.53035C17.4524 9.15868 17.4524 10.8413 16.2788 11.4696Z" fill="#6F7893"/>
</svg>
