<svg width="20" height="20" viewBox="0 0 20 20" fill="none" xmlns="http://www.w3.org/2000/svg">
<path fill-rule="evenodd" clip-rule="evenodd" d="M6.70194 2.048C7.55503 2.00873 7.82703 2 10.0001 2C12.1732 2 12.4452 2.00945 13.2976 2.048C14.1499 2.08655 14.7318 2.22255 15.2408 2.41964C15.7739 2.62109 16.2576 2.936 16.6576 3.34327C17.0648 3.74255 17.379 4.22545 17.5798 4.75927C17.7776 5.26836 17.9128 5.85018 17.9521 6.70109C17.9914 7.55564 18.0001 7.82764 18.0001 10C18.0001 12.1731 17.9907 12.4451 17.9521 13.2982C17.9136 14.1491 17.7776 14.7309 17.5798 15.24C17.379 15.7739 17.0643 16.2576 16.6576 16.6575C16.2576 17.0647 15.7739 17.3789 15.2408 17.5796C14.7318 17.7775 14.1499 17.9127 13.299 17.952C12.4452 17.9913 12.1732 18 10.0001 18C7.82703 18 7.55503 17.9905 6.70194 17.952C5.85103 17.9135 5.26921 17.7775 4.76012 17.5796C4.22625 17.3789 3.74254 17.0642 3.34267 16.6575C2.93567 16.2579 2.62071 15.7745 2.41976 15.2407C2.22267 14.7316 2.08739 14.1498 2.04812 13.2989C2.00885 12.4444 2.00012 12.1724 2.00012 10C2.00012 7.82691 2.00958 7.55491 2.04812 6.70255C2.08667 5.85018 2.22267 5.26836 2.41976 4.75927C2.62101 4.22551 2.93621 3.74205 3.34339 3.34255C3.7427 2.93564 4.22592 2.62069 4.75939 2.41964C5.26849 2.22255 5.8503 2.08727 6.70121 2.048H6.70194ZM13.2328 3.488C12.3892 3.44945 12.1361 3.44145 10.0001 3.44145C7.86412 3.44145 7.61103 3.44945 6.7674 3.488C5.98703 3.52364 5.56376 3.65382 5.28158 3.76364C4.90849 3.90909 4.64158 4.08145 4.36158 4.36145C4.09615 4.61967 3.89189 4.93402 3.76376 5.28145C3.65394 5.56364 3.52376 5.98691 3.48812 6.76727C3.44958 7.61091 3.44158 7.864 3.44158 10C3.44158 12.136 3.44958 12.3891 3.48812 13.2327C3.52376 14.0131 3.65394 14.4364 3.76376 14.7185C3.89176 15.0655 4.09612 15.3804 4.36158 15.6385C4.61976 15.904 4.93467 16.1084 5.28158 16.2364C5.56376 16.3462 5.98703 16.4764 6.7674 16.512C7.61103 16.5505 7.8634 16.5585 10.0001 16.5585C12.1368 16.5585 12.3892 16.5505 13.2328 16.512C14.0132 16.4764 14.4365 16.3462 14.7187 16.2364C15.0918 16.0909 15.3587 15.9185 15.6387 15.6385C15.9041 15.3804 16.1085 15.0655 16.2365 14.7185C16.3463 14.4364 16.4765 14.0131 16.5121 13.2327C16.5507 12.3891 16.5587 12.136 16.5587 10C16.5587 7.864 16.5507 7.61091 16.5121 6.76727C16.4765 5.98691 16.3463 5.56364 16.2365 5.28145C16.091 4.90836 15.9187 4.64145 15.6387 4.36145C15.3804 4.09605 15.0661 3.89179 14.7187 3.76364C14.4365 3.65382 14.0132 3.52364 13.2328 3.488ZM8.9783 12.4662C9.54896 12.7037 10.1844 12.7358 10.7761 12.5569C11.3677 12.378 11.879 11.9992 12.2224 11.4853C12.5658 10.9713 12.7202 10.3541 12.6591 9.73899C12.598 9.12388 12.3252 8.54907 11.8874 8.11273C11.6083 7.8338 11.2708 7.62023 10.8993 7.48738C10.5277 7.35453 10.1313 7.30572 9.73866 7.34445C9.34599 7.38318 8.96678 7.50849 8.62834 7.71137C8.28991 7.91424 8.00066 8.18963 7.78143 8.51771C7.5622 8.84579 7.41844 9.21839 7.3605 9.6087C7.30255 9.99901 7.33187 10.3973 7.44633 10.7749C7.5608 11.1525 7.75756 11.5001 8.02246 11.7925C8.28737 12.085 8.61381 12.315 8.9783 12.4662ZM7.09249 7.09236C7.47432 6.71053 7.92763 6.40764 8.42652 6.20099C8.92541 5.99434 9.46012 5.88798 10.0001 5.88798C10.5401 5.88798 11.0748 5.99434 11.5737 6.20099C12.0726 6.40764 12.5259 6.71053 12.9078 7.09236C13.2896 7.4742 13.5925 7.92751 13.7991 8.4264C14.0058 8.92529 14.1121 9.46 14.1121 10C14.1121 10.54 14.0058 11.0747 13.7991 11.5736C13.5925 12.0725 13.2896 12.5258 12.9078 12.9076C12.1366 13.6788 11.0907 14.112 10.0001 14.112C8.90955 14.112 7.86364 13.6788 7.09249 12.9076C6.32133 12.1365 5.8881 11.0906 5.8881 10C5.8881 8.90942 6.32133 7.86352 7.09249 7.09236ZM15.0241 6.50036C15.1187 6.41111 15.1945 6.30377 15.2469 6.18471C15.2993 6.06565 15.3273 5.93729 15.3292 5.80722C15.331 5.67716 15.3068 5.54803 15.2579 5.4275C15.209 5.30696 15.1364 5.19746 15.0445 5.10548C14.9525 5.0135 14.843 4.94091 14.7224 4.89201C14.6019 4.84311 14.4728 4.81889 14.3427 4.82079C14.2127 4.82268 14.0843 4.85066 13.9652 4.90305C13.8462 4.95545 13.7388 5.0312 13.6496 5.12582C13.476 5.30984 13.3809 5.55427 13.3846 5.80722C13.3883 6.06017 13.4904 6.30173 13.6693 6.48061C13.8482 6.6595 14.0898 6.76162 14.3427 6.76531C14.5957 6.769 14.8401 6.67396 15.0241 6.50036Z" fill="#6F7893"/>
</svg>
