<svg preserveAspectRatio="none" width="100%" height="100%" overflow="visible" style="display: block;" viewBox="0 0 63 56" fill="none" xmlns="http://www.w3.org/2000/svg">
<g id="fa-solid:file-signature" clip-path="url(#clip0_0_744)">
<path id="Vector" d="M23.8624 46.3903C23.5397 45.7428 22.9775 45.6772 22.75 45.6772C22.5225 45.6772 21.9603 45.7417 21.6541 46.3542L20.8152 48.032C20.1185 49.4298 18.0775 49.2756 17.5908 47.8034L15.75 42.2833L14.5896 45.7702C13.9453 47.7017 12.1417 49 10.1052 49H8.75001C7.78314 49 7.00001 48.2169 7.00001 47.25C7.00001 46.2831 7.78314 45.5 8.75001 45.5H10.1052C10.6335 45.5 11.1016 45.1631 11.2689 44.6622L13.2585 38.6859C13.6194 37.613 14.6191 36.8911 15.75 36.8911C16.881 36.8911 17.8806 37.6119 18.2405 38.6859L19.7586 43.2403C21.9188 41.4695 25.6714 42.1794 26.9774 44.7891C27.1841 45.2025 27.5778 45.4398 28.0011 45.4738V36.4919L42.0011 22.5914V17.5H27.125C25.6813 17.5 24.5 16.3187 24.5 14.875V0H2.625C1.17031 0 0 1.17031 0 2.625V53.375C0 54.8297 1.17031 56 2.625 56H39.3751C40.8297 56 42.0001 54.8297 42.0001 53.375V49L28 48.988C26.2369 48.9541 24.6553 47.973 23.8624 46.3903V46.3903ZM42.0001 13.3328C42.0001 12.6438 41.7266 11.9766 41.2344 11.4844L30.5266 0.765625C30.0344 0.273438 29.3672 0 28.6672 0H28V14H42.0001V13.3328ZM31.5 37.9487V45.5H39.0458L56.7296 27.6959L49.3052 20.2716L31.5 37.9487V37.9487ZM62.1841 18.3017L58.6984 14.8159C57.6112 13.7288 55.8469 13.7288 54.7598 14.8159L51.7793 17.7964L59.2037 25.2208L62.1841 22.2403C63.2724 21.1531 63.2724 19.3889 62.1841 18.3017Z" fill="var(--fill-0, white)"/>
</g>
<defs>
<clipPath id="clip0_0_744">
<rect width="63" height="56" fill="white"/>
</clipPath>
</defs>
</svg>
