<svg preserveAspectRatio="none" width="100%" height="100%" overflow="visible" style="display: block;" viewBox="0 0 49 35" fill="none" xmlns="http://www.w3.org/2000/svg">
<g id="Group">
<path id="Vector" d="M7 0C5.14348 0 3.36301 0.737498 2.05025 2.05025C0.737498 3.36301 0 5.14348 0 7V10.5H49V7C49 5.14348 48.2625 3.36301 46.9497 2.05025C45.637 0.737498 43.8565 0 42 0H7Z" fill="var(--fill-0, white)"/>
<path id="Vector_2" d="M0 28V14H49V28C49 29.8565 48.2625 31.637 46.9497 32.9497C45.637 34.2625 43.8565 35 42 35H7C5.14348 35 3.36301 34.2625 2.05025 32.9497C0.737498 31.637 0 29.8565 0 28ZM33.25 24.5C32.7859 24.5 32.3408 24.6844 32.0126 25.0126C31.6844 25.3408 31.5 25.7859 31.5 26.25C31.5 26.7141 31.6844 27.1592 32.0126 27.4874C32.3408 27.8156 32.7859 28 33.25 28H40.25C40.7141 28 41.1592 27.8156 41.4874 27.4874C41.8156 27.1592 42 26.7141 42 26.25C42 25.7859 41.8156 25.3408 41.4874 25.0126C41.1592 24.6844 40.7141 24.5 40.25 24.5H33.25Z" fill="var(--fill-0, white)"/>
</g>
</svg>
