<!-- icon666.com - MILLIONS vector ICONS FREE --><svg version="1.1" id="Capa_1" xmlns="http://www.w3.org/2000/svg" xmlns:xlink="http://www.w3.org/1999/xlink" x="0px" y="0px" viewBox="0 0 512 512" style="enable-background:new 0 0 512 512;" xml:space="preserve"><g><g><g><path d="M32,464V48c0-8.837,7.163-16,16-16h240v64c0,17.673,14.327,32,32,32h64v48h32v-64c0.025-4.253-1.645-8.341-4.64-11.36 l-96-96C312.341,1.645,308.253-0.024,304,0H48C21.49,0,0,21.491,0,48v416c0,26.51,21.49,48,48,48h160v-32H48 C39.164,480,32,472.837,32,464z" fill="#000000" style="fill: rgb(204, 204, 204);"></path><path d="M368,224c-79.529,0-144,64.471-144,144s64.471,144,144,144s144-64.471,144-144S447.529,224,368,224z M256,368 c0.132-61.856,50.383-111.893,112.239-111.761c24.015,0.051,47.378,7.82,66.641,22.161L278.4,434.88 C263.926,415.581,256.069,392.124,256,368z M434.641,457.839C415.378,472.18,392.015,479.949,368,480 c-24.124-0.069-47.581-7.925-66.88-22.4L457.6,301.12C494.537,350.737,484.258,420.902,434.641,457.839z" fill="#000000" style="fill: rgb(204, 204, 204);"></path></g></g></g></svg>