<svg width="36" height="36" viewBox="0 0 36 36" fill="none" xmlns="http://www.w3.org/2000/svg">
<rect width="13.3838" height="1.97201" rx="0.986005" transform="matrix(0.70886 0.705349 -0.70886 0.705349 17.7927 1.80029)" fill="#282828"/>
<rect width="13.3838" height="1.97201" rx="0.986005" transform="matrix(0.70886 0.705349 -0.70886 0.705349 15.4203 4.16016)" fill="#282828"/>
<rect width="13.3838" height="1.97201" rx="0.986005" transform="matrix(0.70886 0.705349 -0.70886 0.705349 13.0489 6.52002)" fill="#282828"/>
<rect width="13.3838" height="1.97201" rx="0.986005" transform="matrix(0.70886 0.705349 -0.70886 0.705349 14.4381 18.6489)" fill="#282828"/>
<rect width="13.3838" height="1.97201" rx="0.986005" transform="matrix(0.70886 0.705349 -0.70886 0.705349 12.0664 21.0083)" fill="#282828"/>
<rect width="13.3838" height="1.97201" rx="0.986005" transform="matrix(0.70886 0.705349 -0.70886 0.705349 9.69466 23.3687)" fill="#282828"/>
<rect width="13.3838" height="1.97201" rx="0.986005" transform="matrix(0.70886 -0.705349 0.70886 0.705349 1.80008 18.0762)" fill="#EF533F"/>
<rect width="13.3838" height="1.97201" rx="0.986005" transform="matrix(0.70886 -0.705349 0.70886 0.705349 4.17206 20.436)" fill="#EF533F"/>
<rect width="13.3838" height="1.97201" rx="0.986005" transform="matrix(0.70886 -0.705349 0.70886 0.705349 6.54356 22.7964)" fill="#EF533F"/>
<rect width="13.3838" height="1.67298" rx="0.836489" transform="matrix(0.70886 -0.705349 0.70886 0.705349 18.5717 21.4136)" fill="#EF533F"/>
<rect width="13.3838" height="1.97201" rx="0.986005" transform="matrix(0.70886 -0.705349 0.70886 0.705349 20.9431 23.7734)" fill="#EF533F"/>
<rect width="13.3838" height="1.97201" rx="0.986005" transform="matrix(0.70886 -0.705349 0.70886 0.705349 23.3146 26.1338)" fill="#EF533F"/>
</svg>
