<svg preserveAspectRatio="none" width="100%" height="100%" overflow="visible" style="display: block;" viewBox="0 0 32 32" fill="none" xmlns="http://www.w3.org/2000/svg">
<g id="Icon">
<path id="Vector" d="M21.3333 17.3334L28.2973 21.976C28.3977 22.0428 28.5144 22.0812 28.6348 22.0869C28.7553 22.0927 28.875 22.0657 28.9813 22.0087C29.0876 21.9518 29.1765 21.8671 29.2385 21.7637C29.3005 21.6603 29.3333 21.5419 29.3333 21.4214V10.4934C29.3334 10.3761 29.3025 10.2608 29.2437 10.1593C29.185 10.0578 29.1005 9.97352 28.9987 9.91509C28.897 9.85666 28.7817 9.8261 28.6644 9.8265C28.5471 9.8269 28.432 9.85824 28.3307 9.91736L21.3333 14" stroke="var(--stroke-0, #EF533F)" stroke-width="2.66667" stroke-linecap="round" stroke-linejoin="round"/>
<path id="Vector_2" d="M18.6667 8H5.33333C3.86057 8 2.66667 9.19391 2.66667 10.6667V21.3333C2.66667 22.8061 3.86057 24 5.33333 24H18.6667C20.1394 24 21.3333 22.8061 21.3333 21.3333V10.6667C21.3333 9.19391 20.1394 8 18.6667 8Z" stroke="var(--stroke-0, #EF533F)" stroke-width="2.66667" stroke-linecap="round" stroke-linejoin="round"/>
</g>
</svg>
