<svg preserveAspectRatio="none" width="100%" height="100%" overflow="visible" style="display: block;" viewBox="0 0 18.6667 18.6667" fill="none" xmlns="http://www.w3.org/2000/svg">
<path id="add" d="M9.33333 18.6667C8.95556 18.6667 8.63889 18.5389 8.38333 18.2833C8.12778 18.0278 8 17.7111 8 17.3333V10.6667H1.33333C0.955556 10.6667 0.638889 10.5389 0.383333 10.2833C0.127778 10.0278 0 9.71111 0 9.33333C0 8.95556 0.127778 8.63889 0.383333 8.38333C0.638889 8.12778 0.955556 8 1.33333 8H8V1.33333C8 0.955556 8.12778 0.638889 8.38333 0.383333C8.63889 0.127778 8.95556 0 9.33333 0C9.71111 0 10.0278 0.127778 10.2833 0.383333C10.5389 0.638889 10.6667 0.955556 10.6667 1.33333V8H17.3333C17.7111 8 18.0278 8.12778 18.2833 8.38333C18.5389 8.63889 18.6667 8.95556 18.6667 9.33333C18.6667 9.71111 18.5389 10.0278 18.2833 10.2833C18.0278 10.5389 17.7111 10.6667 17.3333 10.6667H10.6667V17.3333C10.6667 17.7111 10.5389 18.0278 10.2833 18.2833C10.0278 18.5389 9.71111 18.6667 9.33333 18.6667Z" fill="var(--fill-0, white)"/>
</svg>
