<svg preserveAspectRatio="none" width="100%" height="100%" overflow="visible" style="display: block;" viewBox="0 0 32 32" fill="none" xmlns="http://www.w3.org/2000/svg">
<g id="Close">
<path id="Union" d="M21.3223 8.11618C21.8104 7.62811 22.6017 7.62805 23.0898 8.11618C23.5779 8.6043 23.5779 9.39561 23.0898 9.88375L17.3711 15.6025L23.0928 21.3242C23.5806 21.8123 23.5807 22.6037 23.0928 23.0918C22.6047 23.5798 21.8134 23.5796 21.3252 23.0918L15.6035 17.3701L9.88378 23.0898C9.39564 23.5779 8.60435 23.5779 8.1162 23.0898C7.62806 22.6017 7.62809 21.8104 8.1162 21.3222L13.8359 15.6025L8.11913 9.88571C7.63098 9.39755 7.63098 8.60628 8.11913 8.11813C8.60729 7.63005 9.39858 7.63 9.88671 8.11813L15.6035 13.8349L21.3223 8.11618Z" fill="var(--fill-0, #615F5F)"/>
</g>
</svg>
