<svg preserveAspectRatio="none" width="100%" height="100%" overflow="visible" style="display: block;" viewBox="0 0 48 48" fill="none" xmlns="http://www.w3.org/2000/svg">
<g id="Icon">
<path id="Vector" d="M32 40V8C32 6.93913 31.5786 5.92172 30.8284 5.17157C30.0783 4.42143 29.0609 4 28 4H20C18.9391 4 17.9217 4.42143 17.1716 5.17157C16.4214 5.92172 16 6.93913 16 8V40" stroke="var(--stroke-0, #EF533F)" stroke-width="3" stroke-linecap="round" stroke-linejoin="round"/>
<path id="Vector_2" d="M40 12H8C5.79086 12 4 13.7909 4 16V36C4 38.2091 5.79086 40 8 40H40C42.2091 40 44 38.2091 44 36V16C44 13.7909 42.2091 12 40 12Z" stroke="var(--stroke-0, #EF533F)" stroke-width="3" stroke-linecap="round" stroke-linejoin="round"/>
</g>
</svg>
