<svg width="48" height="48" viewBox="0 0 48 48" fill="none" xmlns="http://www.w3.org/2000/svg">
<g clip-path="url(#clip0_11189_946)">
<path d="M24 0C17.6362 0 11.5275 2.53013 7.03125 7.02938C2.53036 11.5304 0.00124676 17.6347 0 24C0 30.3626 2.53125 36.4714 7.03125 40.9706C11.5275 45.4699 17.6362 48 24 48C30.3638 48 36.4725 45.4699 40.9688 40.9706C45.4688 36.4714 48 30.3626 48 24C48 17.6374 45.4688 11.5286 40.9688 7.02938C36.4725 2.53013 30.3638 0 24 0Z" fill="white"/>
<path d="M10.8638 23.7471C17.8613 20.6991 22.5263 18.6894 24.8588 17.7186C31.5263 14.9462 32.9101 14.4647 33.8138 14.4484C34.0126 14.4452 34.4551 14.4943 34.7438 14.7278C34.9838 14.9246 35.0513 15.1909 35.0851 15.3778C35.1151 15.5646 35.1563 15.9902 35.1226 16.3224C34.7626 20.1174 33.1988 29.3267 32.4038 33.5773C32.0701 35.3758 31.4063 35.9788 30.7651 36.0377C29.3701 36.1659 28.3126 35.1167 26.9626 34.2321C24.8513 32.8472 23.6588 31.9854 21.6076 30.6343C19.2376 29.0728 20.7751 28.2144 22.1251 26.8119C22.4776 26.4448 28.6201 20.8592 28.7363 20.3526C28.7513 20.2892 28.7663 20.0529 28.6238 19.9284C28.4851 19.8036 28.2788 19.8463 28.1288 19.8801C27.9151 19.9281 24.5438 22.1586 18.0038 26.5712C17.0476 27.2289 16.1813 27.5496 15.4013 27.5327C14.5463 27.5143 12.8963 27.0482 11.6701 26.6499C10.1701 26.1613 8.97381 25.9029 9.07881 25.0731C9.13131 24.6411 9.72756 24.1989 10.8638 23.7471Z" fill="#2AABEE"/>
</g>
<defs>
<clipPath id="clip0_11189_946">
<rect width="48" height="48" fill="white"/>
</clipPath>
</defs>
</svg>
