<svg width="48" height="48" viewBox="0 0 48 48" fill="none" xmlns="http://www.w3.org/2000/svg">
<circle cx="24" cy="24" r="24" fill="white"/>
<path d="M33.512 14.4753C31.1413 12.1128 27.9803 10.8003 24.6437 10.8003C17.7071 10.8003 12.0876 16.4003 12.0876 23.3128C12.0876 25.5003 12.7023 27.6878 13.7559 29.5253L11.9998 36.0003L18.673 34.2503C20.5169 35.2128 22.5364 35.7378 24.6437 35.7378C31.5803 35.7378 37.1998 30.1378 37.1998 23.2253C37.112 19.9878 35.8827 16.8378 33.512 14.4753ZM30.7023 27.7753C30.4388 28.4753 29.2096 29.1753 28.5949 29.2628C28.0681 29.3503 27.3657 29.3503 26.6632 29.1753C26.2242 29.0003 25.6096 28.8253 24.9071 28.4753C21.7462 27.1628 19.7266 24.0128 19.551 23.7503C19.3754 23.5753 18.234 22.0878 18.234 20.5128C18.234 18.9378 19.0242 18.2378 19.2876 17.8878C19.551 17.5378 19.9023 17.5378 20.1657 17.5378C20.3413 17.5378 20.6047 17.5378 20.7803 17.5378C20.9559 17.5378 21.2193 17.4503 21.4827 18.0628C21.7462 18.6753 22.3608 20.2503 22.4486 20.3378C22.5364 20.5128 22.5364 20.6878 22.4486 20.8628C22.3608 21.0378 22.273 21.2128 22.0974 21.3878C21.9218 21.5628 21.7462 21.8253 21.6583 21.9128C21.4827 22.0878 21.3071 22.2628 21.4827 22.5253C21.6584 22.8753 22.273 23.8378 23.2388 24.7128C24.4681 25.7628 25.434 26.1128 25.7852 26.2878C26.1364 26.4628 26.312 26.3753 26.4876 26.2003C26.6632 26.0253 27.2779 25.3253 27.4535 24.9753C27.6291 24.6253 27.8925 24.7128 28.1559 24.8003C28.4193 24.8878 29.9998 25.6753 30.2632 25.8503C30.6145 26.0253 30.7901 26.1128 30.8779 26.2003C30.9657 26.4628 30.9657 27.0753 30.7023 27.7753Z" fill="#44B859"/>
</svg>
